<?xml version="1.0" encoding="utf-8"?>
<!-- Generator: Adobe Illustrator 19.1.0, SVG Export Plug-In . SVG Version: 6.00 Build 0)  -->
<svg version="1.1" id="Capa_1" xmlns="http://www.w3.org/2000/svg" xmlns:xlink="http://www.w3.org/1999/xlink" x="0px" y="0px"
	 width="99px" height="99px" viewBox="-539 369 99 99" style="enable-background:new -539 369 99 99;" xml:space="preserve">
<style type="text/css">
	.st0{fill:#EDCEAE;}
	.st1{fill:#D69547;}
	.st2{enable-background:new    ;}
	.st3{clip-path:url(#SVGID_2_);enable-background:new    ;}
	.st4{fill:#DCBB00;}
	.st5{fill:#DBB900;}
	.st6{fill:#D9B700;}
	.st7{fill:#D7B500;}
	.st8{clip-path:url(#SVGID_4_);enable-background:new    ;}
	.st9{fill:#D6B300;}
	.st10{fill:#F6D600;}
	.st11{clip-path:url(#SVGID_6_);enable-background:new    ;}
</style>
<g>
	<g>
		<g>
			<path class="st0" d="M-444.5,441.2c0,5.5-20.1,10-45,10s-45-4.5-45-10v-7.4c0,0,34.7-1.6,45-1.6c11,0,45,1.6,45,1.6V441.2z"/>
			<ellipse class="st1" cx="-489.5" cy="433.8" rx="45" ry="10"/>
		</g>
	</g>
	<g>
		<g>
			<path class="st0" d="M-444.5,424.2c0,5.5-20.1,10-45,10s-45-4.5-45-10v-7.4c0,0,34.7-1.6,45-1.6c11,0,45,1.6,45,1.6V424.2z"/>
			<ellipse class="st1" cx="-489.5" cy="416.8" rx="45" ry="10"/>
		</g>
	</g>
	<g>
		<g>
			<path class="st0" d="M-444.5,407.2c0,5.5-20.1,10-45,10s-45-4.5-45-10v-7.4c0,0,34.7-1.6,45-1.6c11,0,45,1.6,45,1.6V407.2z"/>
			<ellipse class="st1" cx="-489.5" cy="399.8" rx="45" ry="10"/>
		</g>
	</g>
</g>
<g>
	<g class="st2">
		<g class="st2">
			<defs>
				<path id="SVGID_1_" class="st2" d="M-478.5,398v1.4c0,0.4-0.3,0.8-0.9,1.1v-1.4C-478.7,398.8-478.5,398.4-478.5,398z"/>
			</defs>
			<clipPath id="SVGID_2_">
				<use xlink:href="#SVGID_1_"  style="overflow:visible;"/>
			</clipPath>
			<g class="st3">
				<path class="st4" d="M-478.5,398v1.4c0,0,0,0.1,0,0.1v-1.4C-478.5,398.1-478.5,398.1-478.5,398"/>
				<path class="st5" d="M-478.5,398.2v1.4c0,0.1,0,0.1,0,0.2v-1.4C-478.5,398.3-478.5,398.2-478.5,398.2"/>
				<path class="st6" d="M-478.5,398.3v1.4c0,0.1-0.1,0.1-0.1,0.2v-1.4C-478.6,398.5-478.5,398.4-478.5,398.3"/>
				<path class="st7" d="M-478.6,398.5v1.4c-0.1,0.2-0.4,0.4-0.7,0.6v-1.4C-479,398.9-478.8,398.7-478.6,398.5"/>
			</g>
		</g>
		<g class="st2">
			<defs>
				<path id="SVGID_3_" class="st2" d="M-501.3,399.4V398c0,0.5,0.4,0.9,1.2,1.3v1.4C-500.9,400.3-501.3,399.9-501.3,399.4z"/>
			</defs>
			<clipPath id="SVGID_4_">
				<use xlink:href="#SVGID_3_"  style="overflow:visible;"/>
			</clipPath>
			<g class="st8">
				<path class="st7" d="M-500.1,399.3v1.4c-0.8-0.4-1.2-0.8-1.2-1.3V398C-501.3,398.5-500.9,398.9-500.1,399.3"/>
			</g>
		</g>
		<g>
			<polygon class="st9" points="-493.6,401.9 -493.6,403.3 -500.1,400.7 -500.1,399.3 			"/>
		</g>
		<g>
			<polygon class="st9" points="-479.3,399.1 -479.3,400.5 -485.6,403.3 -485.6,401.9 			"/>
		</g>
		<g>
			<path class="st10" d="M-490.3,392.9c1.1,0,2.2,0.2,3.1,0.6l6.5,2.6c2.2,0.8,3,2.1,1.4,3l-6.3,2.8c-1,0.4-2.4,0.6-3.9,0.6
				c-1.5,0-3-0.2-4.1-0.6l-6.5-2.6c-1.8-0.8-1.5-2.1,0.6-2.9l6.3-2.8C-492.4,393.1-491.4,392.9-490.3,392.9z"/>
		</g>
		<g class="st2">
			<defs>
				<path id="SVGID_5_" class="st2" d="M-485.6,401.9v1.4c-1,0.4-2.4,0.6-3.9,0.6c-1.5,0-3-0.2-4.1-0.6v-1.4
					c1.1,0.4,2.6,0.6,4.1,0.6C-488.1,402.5-486.6,402.3-485.6,401.9z"/>
			</defs>
			<clipPath id="SVGID_6_">
				<use xlink:href="#SVGID_5_"  style="overflow:visible;"/>
			</clipPath>
			<g class="st11">
				<path class="st7" d="M-485.6,401.9v1.4c-1,0.4-2.4,0.6-3.9,0.6c-1.5,0-3-0.2-4.1-0.6v-1.4c1.1,0.4,2.6,0.6,4.1,0.6
					C-488.1,402.5-486.6,402.3-485.6,401.9"/>
			</g>
		</g>
	</g>
</g>
</svg>
